<svg id="eeGEzAcJa1s1" xmlns="http://www.w3.org/2000/svg" xmlns:xlink="http://www.w3.org/1999/xlink" viewBox="0 0 100 100" shape-rendering="geometricPrecision" text-rendering="geometricPrecision"><circle r="40" transform="matrix(-.079526 0.077862-.267835-.273559 81.246295 73.493238)" fill="#ffc107"/><circle r="40" transform="matrix(.081881 0.075381-.2593 0.281662 32.166467 79.299075)" fill="#ffc107"/><circle r="40" transform="matrix(.042965 0.102668-.353167 0.147795 23.808614 73.806772)" fill="#ffc107"/><circle r="40" transform="matrix(.013684 0.110452-.37994 0.047073 17.838719 66.165306)" fill="#ffc107"/><circle r="40" transform="matrix(-.025799 0.108265-.372417-.088745 15.288814 57.487682)" fill="#ffc107"/><circle r="40" transform="matrix(-.063134 0.091656-.315287-.217174 14.131934 45.525916)" fill="#ffc107"/><circle r="40" transform="matrix(-.068343 0.087841-.302162-.235092 14.423336 34.452604)" fill="#ffc107"/><circle r="40" transform="matrix(-.08444 0.072503-.249402-.290463 20.251395 24.836309)" fill="#ffc107"/><circle r="40" transform="matrix(-.099579 0.049707-.170985-.342541 26.953662 17.842637)" fill="#ffc107"/><circle r="40" transform="matrix(-.10524 0.036212-.124565-.362014 35.987154 15.802817)" fill="#ffc107"/><circle r="40" transform="matrix(-.110929 0.009031-.031065-.381583 45.894853 14.345802)" fill="#ffc107"/><circle r="40" transform="matrix(-.10334-.041324 0.14215-.355476 54.054134 14.345802)" fill="#ffc107"/><circle r="40" transform="matrix(-.10334-.041324 0.14215-.355476 63.379029 15.220012)" fill="#ffc107"/><circle r="40" transform="matrix(.690053 0 0 0.707783 50.068918 49.44865)" fill="#ffc107"/><circle r="40" transform="matrix(.111246 0.059574-.189313 0.353512 71.868001 18.385937)" fill="#ffc107"/><circle r="40" transform="matrix(.087935 0.09051-.287619 0.279437 81.355856 23.822054)" fill="#ffc107"/><circle r="40" transform="matrix(.031613 0.122169-.388224 0.100459 84.810808 35.012373)" fill="#ffc107"/><circle r="40" transform="matrix(-.016803 0.13076-.391789-.050347 84.073495 46.431269)" fill="#ffc107"/><circle r="40" transform="matrix(-.046463 0.101133-.347887-.159829 85.25007 57.511437)" fill="#ffc107"/><circle r="40" transform="matrix(-.089647 0.065956-.22688-.308376 75.422694 78.7729)" fill="#ffc107"/><circle r="40" transform="matrix(-.102479 0.043416-.149346-.352514 58.434006 84.313788)" fill="#ffc107"/><circle r="40" transform="matrix(-.097321 0.053995-.185737-.334772 67.508246 82.403422)" fill="#ffc107"/><circle r="40" transform="matrix(-.111014-.007918 0.027236-.381875 48.248546 84.788676)" fill="#ffc107"/><circle r="40" transform="matrix(-.10413-.039291 0.135157-.358194 39.397737 84.463762)" fill="#ffc107"/><circle r="40" transform="matrix(-.074898 0.082323-.283182-.25764 85.937457 68.260093)" fill="#ffc107"/><path d="M50,10c22.09139,0,40,17.90861,40,40s-17.90861,40-40,40-40-17.90861-40-40Z" transform="matrix(.690053 0 0 0.707783 15.49735 14.61085)" fill="#8b0000"/><circle r="5" transform="matrix(.690053 0 0 0.707783 60.350795 64.15566)"/><circle r="5" transform="matrix(.690053 0 0 0.707783 67.251325 40.558569)"/><circle r="5" transform="matrix(.690053 0 0 0.707783 50 67.694575)"/><circle r="5" transform="matrix(.690053 0 0 0.707783 46.549735 29.941824)"/><circle r="5" transform="matrix(.690053 0 0 0.707783 56.90053 29.941824)"/><circle r="5" transform="matrix(.690053 0 0 0.707783 36.19894 33.480739)"/><circle r="5" transform="matrix(.690053 0 0 0.707783 29.29841 50)"/><circle r="5" transform="matrix(.690053 0 0 0.707783 36.19894 64.15566)"/><circle r="5" transform="matrix(.690053 0 0 0.707783 70.70159 53.538915)"/><path d="" fill="none" stroke="#3f5787" stroke-width="0.5"/></svg>
