<?xml version="1.0" encoding="utf-8"?>
<!-- Generator: Adobe Illustrator 27.2.0, SVG Export Plug-In . SVG Version: 6.00 Build 0)  -->
<svg version="1.1" id="Layer_1" xmlns="http://www.w3.org/2000/svg" xmlns:xlink="http://www.w3.org/1999/xlink" x="0px" y="0px"
	 viewBox="-600 -50 1800 1000" style="enable-background:new 0 0 358.71 533.49;" xml:space="preserve">
<style type="text/css">
	.st0{fill:#B82E25;stroke:#000000;stroke-miterlimit:10;}
	.st1{fill:#72401A;stroke:#000000;stroke-miterlimit:10;}
	.st2{fill:#CFECF2;stroke:#000000;stroke-miterlimit:10;}
	.st3{fill:none;stroke:#000000;stroke-miterlimit:10;}
	.st4{fill:#D8C7B8;stroke:#000000;stroke-miterlimit:10;}
	.st5{fill:#CFBD2B;stroke:#000000;stroke-miterlimit:10;}
	.st6{fill:#FFFFFF;stroke:#000000;stroke-miterlimit:10;}
	.st7{fill:#54585A;stroke:#000000;stroke-miterlimit:10;}
</style>
<g class="container">
  <g class="building">
    <g class="building_top">
      <g class="windmill_roof">
        <path class="st0" d="M250.59,203.48l-0.29,0.51c-0.01-0.17-0.01-0.34-0.02-0.51H105.3c0,0.14-0.01,0.27-0.01,0.41l-0.24-0.41
          l36.39-63.02h72.77L250.59,203.48z"/>
      </g>
      <g class="roof_outer_circle">
        <circle class="st5" cx="178.38" cy="175.15" r="17.68"/>
      </g>
      <g class="roof_inner_circle">
        <circle class="st6" cx="178.38" cy="175.15" r="6.85"/>
      </g>
    </g>
    
    <g class="building_middle">
      <g class="windmill_tower">
        <path class="st0" d="M276.86,426.83L79.9,425.94c12.01-29.3,21.59-113.67,25.39-222.05c0-0.14,0.01-0.27,0.01-0.41h144.98
          c0.01,0.17,0.01,0.34,0.02,0.51C253.9,306.73,264.64,392.15,276.86,426.83z"/>
      </g>
    </g>
    <g class="building_bottom">
      <g class="windmill_base">
        <polygon class="st0" points="313.69,532.99 32.32,532.48 77.36,425.93 79.9,425.94 276.86,426.83 280.15,426.84 "/>
      </g>
      <g class="door">
        <path class="st1" d="M182.15,471.62v60.99h-49.59v-60.99c0.14-0.28,0.28-0.56,0.42-0.83c5.95-11.65,14.66-18.99,24.37-18.99
          c9.71,0,18.42,7.34,24.38,18.99C181.87,471.06,182.01,471.34,182.15,471.62z"/>
      </g>
      <g class="doorknob">
        <circle class="st7" cx="173" cy="502.96" r="3.14"/>
      </g>  
    </g>
  </g>
  
  <g class="windows">
    <g class="tower_window">
      <rect x="162.92" y="248.87" class="st2" width="29.8" height="29.8"/>
    </g>
    <g class="base_window">
      <rect x="197.05" y="466.96" class="st2" width="29.8" height="29.8"/>
    </g>
    <g class="tower_window_vert_line">
      <line class="st3" x1="177.82" y1="278.68" x2="177.82" y2="248.87"/>
    </g>
    <g class="base_window_vert_line">
      <line class="st3" x1="211.95" y1="496.76" x2="211.95" y2="466.96"/>
    </g>
    <g class="base_window_horiz_line">
      <line class="st3" x1="197.05" y1="481.86" x2="226.85" y2="481.86"/>
    </g>
    <g class="tower_window_horiz_line">
      <line class="st3" x1="162.92" y1="263.78" x2="192.72" y2="263.78"/>
    </g>
  </g>
  <g class="spin_arms animated">
    <g class="bottom_rt_arm">
      <g class="bot_rt_canvas_rect">
        <rect x="223.67" y="185.9" transform="matrix(-0.8777 0.4791 -0.4791 -0.8777 602.3475 388.3434)" class="st4" width="55.91" height="170.25"/>
      </g>
      <g class="bot_rt_rect_dividing_lines">
        <polyline class="st4" points="203.85,200.39 216.54,223.84 229.91,248.56 243.29,273.28 257.13,298.87 271.54,325.5 284.87,350.13 
        "/>
        <polyline class="st4" points="211.12,196.49 223.81,219.94 237.18,244.66 250.56,269.38 264.4,294.97 278.81,321.59 292.14,346.23 
        "/>
        <polyline class="st4" points="218.34,192.48 218.39,192.58 231.08,216.03 244.46,240.75 257.83,265.48 271.68,291.06 286.08,317.69 
        299.36,342.23 "/>
        <polyline class="st4" points="225,188.91 225.05,189 237.74,212.46 251.11,237.17 251.11,237.18 264.49,261.9 278.34,287.48 
        292.74,314.11 306.02,338.65 "/>
        <polyline class="st4" points="311.77,335.56 298.49,311.02 284.09,284.4 284.09,284.39 270.24,258.81 256.87,234.09 256.87,234.08 
        243.49,209.37 230.8,185.91 230.75,185.82 "/>
        <polyline class="st3" points="197.08,203.9 197.13,204 209.82,227.45 223.2,252.17 236.57,276.89 250.42,302.48 264.82,329.1 
        278.1,353.64 "/>
        <polyline class="st4" points="199.95,232.75 209.82,227.45 216.54,223.84 223.81,219.94 231.08,216.03 237.74,212.46 243.49,209.37 
        249.21,206.3 "/>
        <polyline class="st4" points="261.81,231.43 256.87,234.08 256.87,234.09 251.11,237.17 251.11,237.18 244.46,240.75 237.18,244.66 
        229.91,248.56 223.2,252.17 213.25,257.51 212.56,257.88 "/>
        <polyline class="st4" points="225.94,282.6 226.55,282.27 236.57,276.89 243.29,273.28 250.56,269.38 257.83,265.48 264.49,261.9 
        270.24,258.81 275.2,256.15 "/>
        <polyline class="st4" points="240.32,307.9 250.42,302.48 257.13,298.87 264.4,294.97 271.68,291.06 278.34,287.48 284.09,284.4 
        284.09,284.39 289.57,281.45 "/>
        <polyline class="st4" points="303.28,308.45 298.49,311.02 292.74,314.11 286.08,317.69 278.81,321.59 271.54,325.5 264.82,329.1 
        254.64,334.57 254.03,334.9 "/>
      </g>
    </g>
    <g class="top_lft_arm">
      <g class="top_lft_canvas_rect">
        <rect x="82.17" y="3.67" transform="matrix(-0.8777 0.4791 -0.4791 -0.8777 249.3348 113.961)" class="st4" width="55.91" height="170.25"/>
      </g>
      <g class="top_lft_rect_dividing_lines">
        <line class="st4" x1="159" y1="159.1" x2="76.96" y2="9.91"/>
        <line class="st4" x1="151.75" y1="163.05" x2="69.72" y2="13.87"/>
        <line class="st4" x1="144.56" y1="167.1" x2="62.53" y2="17.92"/>
        <line class="st4" x1="137.93" y1="170.72" x2="55.89" y2="21.54"/>
        <line class="st4" x1="132.2" y1="173.85" x2="50.16" y2="24.67"/>
        <line class="st4" x1="165.74" y1="155.54" x2="83.71" y2="6.35"/>
        <line class="st4" x1="162.68" y1="126.71" x2="113.6" y2="153.5"/>
        <line class="st4" x1="149.9" y1="101.66" x2="100.83" y2="128.45"/>
        <line class="st4" x1="136.35" y1="77.04" x2="87.28" y2="103.83"/>
        <line class="st4" x1="121.8" y1="51.83" x2="72.73" y2="78.62"/>
        <line class="st4" x1="107.91" y1="24.93" x2="58.83" y2="51.72"/>
      </g>
    </g>
    <g class="bottom_lft_arm">
      <g class="btm_lft_canvas_rect">
        <rect x="60.73" y="158.15" transform="matrix(0.485 0.8745 -0.8745 0.485 258.4142 47.7291)" class="st4" width="55.91" height="170.25"/>
      </g>
      <g class="btm_lft_rect_dividing_lines">
        <line class="st4" x1="158.66" y1="193.93" x2="10.03" y2="276.97"/>
        <line class="st4" x1="162.66" y1="201.15" x2="14.03" y2="284.19"/>
        <line class="st4" x1="166.76" y1="208.31" x2="18.13" y2="291.35"/>
        <line class="st4" x1="170.42" y1="214.92" x2="21.79" y2="297.96"/>
        <line class="st4" x1="173.59" y1="220.63" x2="24.96" y2="303.67"/>
        <line class="st3" x1="155.06" y1="187.21" x2="6.42" y2="270.25"/>
        <line class="st4" x1="126.25" y1="190.47" x2="153.37" y2="239.37"/>
        <line class="st4" x1="101.29" y1="203.41" x2="128.41" y2="252.31"/>
        <line class="st4" x1="76.76" y1="217.13" x2="103.87" y2="266.02"/>
        <line class="st4" x1="51.65" y1="231.85" x2="78.77" y2="280.74"/>
        <line class="st4" x1="24.84" y1="245.92" x2="51.96" y2="294.82"/>
      </g>
    </g>
    <g class="top_rt_arm">
      <g class="top_rt_canvas_rect">
        <rect x="241.74" y="18.77" transform="matrix(-0.466 -0.8848 0.8848 -0.466 303.4577 390.9298)" class="st4" width="55.91" height="170.25"/>
      </g>
      <g class="top_rt_rect_dividing_lines">
        <line class="st4" x1="198.67" y1="151.72" x2="349.06" y2="71.9"/>
        <line class="st4" x1="194.82" y1="144.41" x2="345.21" y2="64.6"/>
        <line class="st4" x1="190.88" y1="137.16" x2="341.27" y2="57.35"/>
        <line class="st4" x1="187.36" y1="130.48" x2="337.75" y2="50.67"/>
        <line class="st4" x1="184.32" y1="124.7" x2="334.7" y2="44.89"/>
        <line class="st4" x1="202.13" y1="158.51" x2="352.51" y2="78.7"/>
        <line class="st4" x1="231" y1="155.88" x2="204.94" y2="106.41"/>
        <line class="st4" x1="256.23" y1="143.47" x2="230.17" y2="94.01"/>
        <line class="st4" x1="281.05" y1="130.29" x2="255" y2="80.82"/>
        <line class="st4" x1="306.47" y1="116.12" x2="280.42" y2="66.65"/>
        <line class="st4" x1="333.58" y1="102.63" x2="307.52" y2="53.16"/>
      </g>
    </g>
    <g class="windmill_arms">
      <polygon class="st1" points="182.63,176.42 274.26,350.97 269.03,353.72 177.39,179.15 9.32,266.5 6.59,261.25 174.64,173.91 
    90.19,13.03 95.42,10.28 179.89,171.19 348.01,83.81 350.74,89.05 "/>
    </g>
    <animateTransform
            attributeName="transform"
            begin="0s"
            dur="20s"
            type="rotate"
            from="0 178.38 175.15"
            to="360 178.38 175.15"
            repeatCount="indefinite"
        />
  </g>
 </g>
</svg>
